<svg width="218" height="180" viewBox="0 0 218 180" fill="none" xmlns="http://www.w3.org/2000/svg">
<path d="M59.4621 126.269H156.537C158.941 126.269 161.05 124.68 161.7 122.371L183.194 47.1465C183.656 45.5248 183.34 43.7827 182.322 42.4352C181.304 41.092 179.72 40.2986 178.029 40.2986H47.0578L43.2169 23.0152C42.6712 20.5539 40.4884 18.8063 37.9698 18.8063H5.37308C2.40389 18.8063 0 21.2102 0 24.1794C0 27.1499 2.40389 29.5524 5.37308 29.5524H33.6573L53.0606 116.865C47.3517 119.347 43.3429 125.03 43.3429 131.642C43.3429 140.53 50.5741 147.762 59.4621 147.762H156.537C159.508 147.762 161.91 145.359 161.91 142.389C161.91 139.419 159.508 137.015 156.537 137.015H59.4621C56.5027 137.015 54.089 134.607 54.089 131.642C54.089 128.677 56.5027 126.269 59.4621 126.269Z" fill="#840000"/>
<path d="M54.089 163.881C54.089 172.77 61.3203 180 70.2096 180C79.0976 180 86.3289 172.77 86.3289 163.881C86.3289 154.993 79.0976 147.762 70.2096 147.762C61.3203 147.762 54.089 154.993 54.089 163.881Z" fill="#840000"/>
<path d="M129.672 163.881C129.672 172.77 136.903 180 145.791 180C154.68 180 161.91 172.77 161.91 163.881C161.91 154.993 154.68 147.762 145.791 147.762C136.903 147.762 129.672 154.993 129.672 163.881Z" fill="#840000"/>
<circle cx="171.941" cy="45.6716" r="40.6716" fill="white" stroke="#F8F8F8" stroke-width="10"/>
<path d="M173.311 41.0732C176.649 41.0732 179.301 42.0098 181.269 43.883C183.252 45.7563 184.244 48.3222 184.244 51.5807C184.244 55.4374 183.056 58.4046 180.679 60.4825C178.302 62.5604 174.901 63.5994 170.478 63.5994C166.637 63.5994 163.536 62.9776 161.175 61.734V55.4295C162.418 56.0906 163.867 56.6337 165.519 57.0587C167.172 57.468 168.739 57.6727 170.218 57.6727C174.673 57.6727 176.901 55.8466 176.901 52.1946C176.901 48.7157 174.594 46.9763 169.982 46.9763C169.148 46.9763 168.227 47.0628 167.22 47.236C166.212 47.3934 165.393 47.5666 164.764 47.7555L161.86 46.197L163.158 28.6058H181.883V34.7923H169.557L168.92 41.569L169.746 41.4037C170.706 41.1834 171.895 41.0732 173.311 41.0732Z" fill="#BC0023"/>
</svg>
