<?xml version="1.0" encoding="utf-8"?>
<!-- Generator: Adobe Illustrator 17.0.0, SVG Export Plug-In . SVG Version: 6.00 Build 0)  -->
<!DOCTYPE svg PUBLIC "-//W3C//DTD SVG 1.1//EN" "http://www.w3.org/Graphics/SVG/1.1/DTD/svg11.dtd">
<svg version="1.1" id="Слой_1" xmlns="http://www.w3.org/2000/svg" xmlns:xlink="http://www.w3.org/1999/xlink" x="0px" y="0px"
	 width="238.4px" height="360px" viewBox="130.8 20 238.4 360" enable-background="new 130.8 20 238.4 360" xml:space="preserve">
<path d="M353.6,20H146.4c-8.4,0-15.6,6.8-15.6,15.6v328.8c0,8.4,6.8,15.6,15.6,15.6h207.2c8.4,0,15.6-6.8,15.6-15.6V35.6
	C369.2,26.8,362,20,353.6,20z M250,373.2c-5.2,0-9.2-4-9.2-9.2s4-9.2,9.2-9.2s9.2,4,9.2,9.2S255.2,373.2,250,373.2z M361.6,344.8
	H138.4V56.4h222.8v288.4H361.6z"/>
</svg>
