<?xml version="1.0" encoding="utf-8"?>
<!-- Generator: Adobe Illustrator 17.0.0, SVG Export Plug-In . SVG Version: 6.00 Build 0)  -->
<!DOCTYPE svg PUBLIC "-//W3C//DTD SVG 1.1//EN" "http://www.w3.org/Graphics/SVG/1.1/DTD/svg11.dtd">
<svg version="1.1" id="Layer_1" xmlns="http://www.w3.org/2000/svg" xmlns:xlink="http://www.w3.org/1999/xlink" x="0px" y="0px"
	 width="127.174px" height="64.333px" viewBox="87.659 222.833 127.174 64.333"
	 enable-background="new 87.659 222.833 127.174 64.333" xml:space="preserve">
<g>
</g>
<g>
	<g>
		<g>
			
				<linearGradient id="SVGID_1_" gradientUnits="userSpaceOnUse" x1="250.293" y1="-77.648" x2="264.2929" y2="-177.6476" gradientTransform="matrix(0.5939 0 0 -0.5939 -47.2969 199.9715)">
				<stop  offset="0" style="stop-color:#FFFFFF"/>
				<stop  offset="0.1333" style="stop-color:#FBFBFB"/>
				<stop  offset="0.2599" style="stop-color:#F0F0F0"/>
				<stop  offset="0.3838" style="stop-color:#DDDDDD"/>
				<stop  offset="0.5061" style="stop-color:#C2C2C2"/>
				<stop  offset="0.6272" style="stop-color:#9F9F9F"/>
				<stop  offset="0.7475" style="stop-color:#747474"/>
				<stop  offset="0.8671" style="stop-color:#424242"/>
				<stop  offset="0.9834" style="stop-color:#090909"/>
				<stop  offset="1" style="stop-color:#000000"/>
			</linearGradient>
			<path fill="url(#SVGID_1_)" d="M87.659,247.238v21.915h7.899v-16.095h11.759v16.095h7.899c0,0,0-30.348,0-44.898h-5.107
				C97.339,224.195,87.659,230.312,87.659,247.238z M107.317,247.001c0,0-9.146,0-11.759,0c0-9.324,3.385-15.085,11.759-15.085
				V247.001z"/>
			<g>
				
					<linearGradient id="SVGID_2_" gradientUnits="userSpaceOnUse" x1="250.4386" y1="-64.2546" x2="250.4386" y2="-354.0272" gradientTransform="matrix(0.5939 0 0 -0.5939 -47.2969 199.9715)">
					<stop  offset="0" style="stop-color:#FFFFFF"/>
					<stop  offset="0.0961" style="stop-color:#F9F9F9"/>
					<stop  offset="0.2204" style="stop-color:#E9E9E9"/>
					<stop  offset="0.3601" style="stop-color:#CFCFCF"/>
					<stop  offset="0.5113" style="stop-color:#A9A9A9"/>
					<stop  offset="0.6715" style="stop-color:#7A7A7A"/>
					<stop  offset="0.8366" style="stop-color:#404040"/>
					<stop  offset="1" style="stop-color:#000000"/>
				</linearGradient>
				<path fill="url(#SVGID_2_)" d="M87.659,247.238v21.915h7.899v-16.095h11.759v16.095h7.899c0,0,0-30.348,0-44.898h-5.107
					C97.339,224.195,87.659,230.312,87.659,247.238z M107.317,247.001c0,0-9.146,0-11.759,0c0-9.324,3.385-15.085,11.759-15.085
					V247.001z"/>
			</g>
		</g>
		<g>
			
				<linearGradient id="SVGID_3_" gradientUnits="userSpaceOnUse" x1="301.9386" y1="-64.2546" x2="301.9386" y2="-354.0268" gradientTransform="matrix(0.5939 0 0 -0.5939 -47.2969 199.9715)">
				<stop  offset="0" style="stop-color:#FFFFFF"/>
				<stop  offset="0.1333" style="stop-color:#FBFBFB"/>
				<stop  offset="0.2599" style="stop-color:#F0F0F0"/>
				<stop  offset="0.3838" style="stop-color:#DDDDDD"/>
				<stop  offset="0.5061" style="stop-color:#C2C2C2"/>
				<stop  offset="0.6272" style="stop-color:#9F9F9F"/>
				<stop  offset="0.7475" style="stop-color:#747474"/>
				<stop  offset="0.8671" style="stop-color:#424242"/>
				<stop  offset="0.9834" style="stop-color:#090909"/>
				<stop  offset="1" style="stop-color:#000000"/>
			</linearGradient>
			<path fill="url(#SVGID_3_)" d="M137.13,249.02h-0.119l0.119-0.059c2.732-1.544,4.217-4.157,4.217-7.364
				c0-3.207-1.307-6.117-3.504-7.78c-3.029-2.376-7.067-2.376-9.205-2.376h-9.324v37.772h12.65c2.613,0,6.473-0.297,9.562-3.029
				c2.791-2.494,3.207-5.88,3.207-7.602c0-2.019-0.475-4.929-2.732-7.067C141.169,250.564,139.684,249.436,137.13,249.02z
				 M126.678,237.38h2.138c1.663,0,5.642,0.475,5.642,4.692c0,4.276-3.563,4.87-5.701,4.87h-2.079V237.38z M134.814,262.086
				c-1.722,1.01-3.979,1.01-5.048,1.01h-3.148v-10.334h2.673c1.604,0,3.445,0,5.048,0.713c2.376,1.069,2.732,3.148,2.732,4.276
				C137.13,258.879,136.833,260.898,134.814,262.086z"/>
			<g>
				
					<linearGradient id="SVGID_4_" gradientUnits="userSpaceOnUse" x1="289.661" y1="-23.0434" x2="328.3278" y2="-287.0431" gradientTransform="matrix(0.5939 0 0 -0.5939 -47.2969 199.9715)">
					<stop  offset="0" style="stop-color:#FFFFFF"/>
					<stop  offset="0.0961" style="stop-color:#F9F9F9"/>
					<stop  offset="0.2204" style="stop-color:#E9E9E9"/>
					<stop  offset="0.3601" style="stop-color:#CFCFCF"/>
					<stop  offset="0.5113" style="stop-color:#A9A9A9"/>
					<stop  offset="0.6715" style="stop-color:#7A7A7A"/>
					<stop  offset="0.8366" style="stop-color:#404040"/>
					<stop  offset="1" style="stop-color:#000000"/>
				</linearGradient>
				<path fill="url(#SVGID_4_)" d="M137.13,249.02h-0.119l0.119-0.059c2.732-1.544,4.217-4.157,4.217-7.364
					c0-3.207-1.307-6.117-3.504-7.78c-3.029-2.376-7.067-2.376-9.205-2.376h-9.324v37.772h12.65c2.613,0,6.473-0.297,9.562-3.029
					c2.791-2.494,3.207-5.88,3.207-7.602c0-2.019-0.475-4.929-2.732-7.067C141.169,250.564,139.684,249.436,137.13,249.02z
					 M126.678,237.38h2.138c1.663,0,5.642,0.475,5.642,4.692c0,4.276-3.563,4.87-5.701,4.87h-2.079V237.38z M134.814,262.086
					c-1.722,1.01-3.979,1.01-5.048,1.01h-3.148v-10.334h2.673c1.604,0,3.445,0,5.048,0.713c2.376,1.069,2.732,3.148,2.732,4.276
					C137.13,258.879,136.833,260.898,134.814,262.086z"/>
			</g>
		</g>
		<g>
			
				<linearGradient id="SVGID_5_" gradientUnits="userSpaceOnUse" x1="341.0886" y1="-64.2546" x2="341.0886" y2="-354.027" gradientTransform="matrix(0.5939 0 0 -0.5939 -47.2969 199.9715)">
				<stop  offset="0" style="stop-color:#FFFFFF"/>
				<stop  offset="0.1333" style="stop-color:#FBFBFB"/>
				<stop  offset="0.2599" style="stop-color:#F0F0F0"/>
				<stop  offset="0.3838" style="stop-color:#DDDDDD"/>
				<stop  offset="0.5061" style="stop-color:#C2C2C2"/>
				<stop  offset="0.6272" style="stop-color:#9F9F9F"/>
				<stop  offset="0.7475" style="stop-color:#747474"/>
				<stop  offset="0.8671" style="stop-color:#424242"/>
				<stop  offset="0.9834" style="stop-color:#090909"/>
				<stop  offset="1" style="stop-color:#000000"/>
			</linearGradient>
			<polygon fill="url(#SVGID_5_)" points="167.419,231.381 143.129,231.381 143.129,237.617 151.562,237.617 151.621,237.617 
				151.621,237.677 151.621,269.153 158.926,269.153 158.926,237.677 158.926,237.617 158.986,237.617 167.419,237.617 			"/>
			
				<linearGradient id="SVGID_6_" gradientUnits="userSpaceOnUse" x1="334.9764" y1="-16.4064" x2="373.6432" y2="-280.4059" gradientTransform="matrix(0.5939 0 0 -0.5939 -47.2969 199.9715)">
				<stop  offset="0" style="stop-color:#FFFFFF"/>
				<stop  offset="0.0961" style="stop-color:#F9F9F9"/>
				<stop  offset="0.2204" style="stop-color:#E9E9E9"/>
				<stop  offset="0.3601" style="stop-color:#CFCFCF"/>
				<stop  offset="0.5113" style="stop-color:#A9A9A9"/>
				<stop  offset="0.6715" style="stop-color:#7A7A7A"/>
				<stop  offset="0.8366" style="stop-color:#404040"/>
				<stop  offset="1" style="stop-color:#000000"/>
			</linearGradient>
			<polygon fill="url(#SVGID_6_)" points="167.419,231.381 143.129,231.381 143.129,237.617 151.562,237.617 151.621,237.617 
				151.621,237.677 151.621,269.153 158.926,269.153 158.926,237.677 158.926,237.617 158.986,237.617 167.419,237.617 			"/>
		</g>
		<g>
			
				<linearGradient id="SVGID_7_" gradientUnits="userSpaceOnUse" x1="393.0389" y1="-64.2546" x2="393.0389" y2="-354.0267" gradientTransform="matrix(0.5939 0 0 -0.5939 -47.2969 199.9715)">
				<stop  offset="0" style="stop-color:#FFFFFF"/>
				<stop  offset="0.1333" style="stop-color:#FBFBFB"/>
				<stop  offset="0.2599" style="stop-color:#F0F0F0"/>
				<stop  offset="0.3838" style="stop-color:#DDDDDD"/>
				<stop  offset="0.5061" style="stop-color:#C2C2C2"/>
				<stop  offset="0.6272" style="stop-color:#9F9F9F"/>
				<stop  offset="0.7475" style="stop-color:#747474"/>
				<stop  offset="0.8671" style="stop-color:#424242"/>
				<stop  offset="0.9834" style="stop-color:#090909"/>
				<stop  offset="1" style="stop-color:#000000"/>
			</linearGradient>
			<path fill="url(#SVGID_7_)" d="M186.127,230.491c-11.878,0-20.133,8.136-20.133,19.777c0,11.581,8.315,19.717,20.133,19.717
				c11.878,0,20.133-8.077,20.133-19.717C206.319,238.627,198.005,230.491,186.127,230.491z M186.127,263.274
				c-7.364,0-12.531-5.345-12.531-13.006c0-3.682,1.247-7.008,3.504-9.384s5.464-3.682,9.027-3.682s6.77,1.307,9.027,3.682
				c2.257,2.376,3.504,5.701,3.504,9.384C198.717,257.928,193.55,263.274,186.127,263.274z"/>
			<g>
				
					<linearGradient id="SVGID_8_" gradientUnits="userSpaceOnUse" x1="382.0435" y1="-9.5126" x2="420.7104" y2="-273.513" gradientTransform="matrix(0.5939 0 0 -0.5939 -47.2969 199.9715)">
					<stop  offset="0" style="stop-color:#FFFFFF"/>
					<stop  offset="0.0961" style="stop-color:#F9F9F9"/>
					<stop  offset="0.2204" style="stop-color:#E9E9E9"/>
					<stop  offset="0.3601" style="stop-color:#CFCFCF"/>
					<stop  offset="0.5113" style="stop-color:#A9A9A9"/>
					<stop  offset="0.6715" style="stop-color:#7A7A7A"/>
					<stop  offset="0.8366" style="stop-color:#404040"/>
					<stop  offset="1" style="stop-color:#000000"/>
				</linearGradient>
				<path fill="url(#SVGID_8_)" d="M186.127,230.491c-11.878,0-20.133,8.136-20.133,19.777c0,11.581,8.315,19.717,20.133,19.717
					c11.878,0,20.133-8.077,20.133-19.717C206.319,238.627,198.005,230.491,186.127,230.491z M186.127,263.274
					c-7.364,0-12.531-5.345-12.531-13.006c0-3.682,1.247-7.008,3.504-9.384s5.464-3.682,9.027-3.682s6.77,1.307,9.027,3.682
					c2.257,2.376,3.504,5.701,3.504,9.384C198.717,257.928,193.55,263.274,186.127,263.274z"/>
			</g>
		</g>
	</g>
</g>
<g opacity="0.5">
	<g>
		<g>
			<g>
				<g>
					<path fill="#231F20" d="M210.695,278.496l-84.689,7.364c-0.95,0.059-1.782-0.653-1.9-1.604l-2.197-25.597
						c-0.059-0.95,0.653-1.782,1.604-1.9l84.689-7.364c0.95-0.059,1.782,0.653,1.9,1.604l2.197,25.597
						C212.358,277.606,211.645,278.437,210.695,278.496"/>
				</g>
			</g>
		</g>
	</g>
</g>
<g>
	<g>
		<g>
			
				<linearGradient id="SVGID_10_" gradientUnits="userSpaceOnUse" x1="359.7018" y1="-87.5667" x2="383.7015" y2="-345.5659" gradientTransform="matrix(0.5939 0 0 -0.5939 -47.2969 199.9715)">
				<stop  offset="0" style="stop-color:#FFFFFF"/>
				<stop  offset="0.095" style="stop-color:#F0F0F0"/>
				<stop  offset="0.2788" style="stop-color:#C8C8C8"/>
				<stop  offset="0.5328" style="stop-color:#878787"/>
				<stop  offset="0.844" style="stop-color:#2F2F2F"/>
				<stop  offset="1" style="stop-color:#000000"/>
			</linearGradient>
			<path fill="url(#SVGID_10_)" d="M211.308,277.765l-84.689,7.364c-0.95,0.059-1.782-0.653-1.9-1.604l-2.197-25.597
				c-0.059-0.95,0.653-1.782,1.604-1.9l84.689-7.364c0.95-0.059,1.782,0.653,1.9,1.604l2.197,25.597
				C212.971,276.874,212.258,277.705,211.308,277.765"/>
		</g>
	</g>
</g>
<g>
	<path fill="#414042" d="M144.079,261.314c-1.128-0.831-2.257-1.069-3.682-1.069c-0.475,0-0.95,0-1.485,0.059l-5.523,0.475
		l1.663,19.005l3.682-0.297l-0.594-7.067l2.376-0.178c2.197-0.178,3.742-0.95,4.692-2.079c1.307-1.604,1.247-3.623,1.188-4.395
		C146.276,264.402,145.742,262.561,144.079,261.314z M141.763,268.322c-0.772,0.653-1.663,0.772-2.376,0.831l-1.485,0.119
		l-0.475-5.583l1.307-0.119c0.297,0,0.594-0.059,0.831-0.059c0.653,0,1.247,0.119,1.841,0.416c0.594,0.356,1.128,1.01,1.247,2.079
		C142.654,266.837,142.416,267.728,141.763,268.322z"/>
	<polygon fill="#414042" points="153.225,275.033 152.75,269.806 159.342,269.272 159.045,266.065 152.512,266.599 152.096,262.383 
		158.986,261.789 158.689,258.582 148.117,259.473 149.78,278.537 160.352,277.646 160.055,274.439 	"/>
	<path fill="#414042" d="M174.249,267.371c-0.535-0.416-1.307-0.891-2.613-1.01c0.475-0.356,2.019-1.485,1.841-3.92
		c-0.119-1.604-0.95-3.029-2.138-3.801c-1.069-0.713-2.376-0.891-3.385-0.891c-0.535,0-1.01,0.059-1.366,0.059l-4.692,0.416
		l1.663,19.005l6.414-0.535c1.663-0.119,3.385-0.594,4.692-1.96c1.188-1.307,1.366-2.851,1.307-3.979
		C175.793,269.866,175.437,268.381,174.249,267.371z M165.875,261.017l1.069-0.119c0.119,0,0.297,0,0.416,0
		c1.366,0,2.494,0.594,2.613,2.197c0.238,2.435-2.079,2.673-2.673,2.732l-1.069,0.119L165.875,261.017z M171.042,273.132
		c-0.772,0.534-1.782,0.653-2.494,0.713l-1.604,0.119l-0.475-5.226l1.366-0.119c0.356-0.059,0.772-0.059,1.128-0.059
		c0.475,0,0.95,0.059,1.425,0.238c1.247,0.416,1.544,1.425,1.604,2.019C172.111,271.588,171.933,272.479,171.042,273.132z"/>
	<path fill="#414042" d="M204.003,264.283c-0.475-5.404-4.335-9.146-9.68-9.146c-0.356,0-0.653,0-1.01,0.059
		c-3.148,0.297-5.464,1.485-7.067,3.563c-0.653,0.831-1.782,2.554-1.96,5.108l-2.613,0.238l-0.653-7.364l-3.682,0.297L179,276.042
		l3.682-0.297l-0.713-8.493l2.494-0.238c0.535,3.326,2.376,5.226,3.445,6.117c1.485,1.247,3.445,2.019,5.998,2.019
		c0.356,0,0.772,0,1.188-0.059C200.915,274.558,204.537,270.044,204.003,264.283z M194.797,271.647c-0.178,0-0.416,0-0.594,0
		c-3.266,0-5.642-2.435-5.939-6.058c-0.416-4.573,2.613-6.889,5.404-7.127c0.178,0,0.356,0,0.535,0c2.673,0,5.701,1.782,6.058,6.117
		C200.558,268.5,198.361,271.351,194.797,271.647z"/>
</g>
</svg>
