<?xml version="1.0" encoding="utf-8"?>
<!-- Generator: Adobe Illustrator 17.0.0, SVG Export Plug-In . SVG Version: 6.00 Build 0)  -->
<!DOCTYPE svg PUBLIC "-//W3C//DTD SVG 1.1//EN" "http://www.w3.org/Graphics/SVG/1.1/DTD/svg11.dtd">
<svg version="1.1" id="Layer_1" xmlns="http://www.w3.org/2000/svg" xmlns:xlink="http://www.w3.org/1999/xlink" x="0px" y="0px"
	 width="210.932px" height="110.481px" viewBox="0 0 210.932 110.481" enable-background="new 0 0 210.932 110.481"
	 xml:space="preserve">
<g>
	<g>
		<path fill="#FFFFFF" d="M0,38.794v36.852h13.271V48.515h19.848v27.131h13.312c0,0,0.007-51.113,0.012-75.646h-8.565
			C16.279,0,0,10.307,0,38.794z M33.119,38.372c0,0-15.366,0-19.848,0c0-15.657,5.741-25.433,19.848-25.433V38.372z"/>
		<path fill="#FFFFFF" d="M83.323,41.781l-0.229-0.037l0.203-0.112c4.595-2.553,7.127-6.974,7.127-12.45
			c0-5.38-2.204-10.286-5.895-13.126C79.39,12.059,72.631,12.059,69,12.059H53.311v63.587h21.327c4.403,0,10.864-0.533,16.099-5.141
			c4.717-4.204,5.42-9.851,5.42-12.842c0-3.446-0.791-8.307-4.562-11.888C90.126,44.391,87.67,42.473,83.323,41.781z M65.735,22.19
			h3.552c2.849,0,9.477,0.774,9.477,7.948c0,7.165-5.998,8.234-9.574,8.234h-3.456V22.19z M79.472,63.806
			c-2.916,1.71-6.664,1.71-8.465,1.71h-5.273V48.09h4.508c2.725,0,5.813,0,8.473,1.234c4.034,1.825,4.636,5.29,4.636,7.192
			C83.351,58.378,82.848,61.803,79.472,63.806z"/>
		<polygon fill="#FFFFFF" points="134.349,12.059 93.413,12.059 93.413,22.603 107.668,22.603 107.748,22.603 107.748,22.683 
			107.748,75.646 120.014,75.646 120.014,22.683 120.014,22.603 120.094,22.603 134.349,22.603 		"/>
		<path fill="#FFFFFF" d="M165.864,10.625c-19.986,0-33.944,13.684-33.944,33.276c0,19.535,13.958,33.179,33.944,33.179
			s33.944-13.643,33.944-33.179C199.808,24.309,185.849,10.625,165.864,10.625z M165.864,65.802
			c-12.446,0-21.137-9.007-21.137-21.902c0-6.222,2.105-11.841,5.927-15.823c3.824-3.983,9.226-6.175,15.21-6.175
			s11.386,2.193,15.21,6.175c3.823,3.981,5.928,9.6,5.928,15.823C187.001,56.796,178.309,65.802,165.864,65.802z"/>
	</g>
	<g>
		<g opacity="0.5">
			<defs>
				<filter id="Adobe_OpacityMaskFilter" filterUnits="userSpaceOnUse" x="54.498" y="46.455" width="152.2" height="61.316">
					<feFlood  style="flood-color:white;flood-opacity:1" result="back"/>
					<feBlend  in="SourceGraphic" in2="back" mode="normal"/>
				</filter>
			</defs>
			<mask maskUnits="userSpaceOnUse" x="54.498" y="46.455" width="152.2" height="61.316" id="SVGID_1_">
				<g filter="url(#Adobe_OpacityMaskFilter)">
					
						<image overflow="visible" width="651" height="273" xlink:href="881A2CE8DECB11B0.jpg"  transform="matrix(0.24 0 0 0.24 52.4976 44.4548)">
					</image>
				</g>
			</mask>
			<g mask="url(#SVGID_1_)">
				<defs>
					<filter id="Adobe_OpacityMaskFilter_1_" filterUnits="userSpaceOnUse" x="54.498" y="46.455" width="152.2" height="61.316">
						<feFlood  style="flood-color:white;flood-opacity:1" result="back"/>
						<feBlend  in="SourceGraphic" in2="back" mode="normal"/>
					</filter>
				</defs>
				<mask maskUnits="userSpaceOnUse" x="54.498" y="46.455" width="152.2" height="61.316" id="SVGID_1_">
					<g filter="url(#Adobe_OpacityMaskFilter_1_)">
						
							<image overflow="visible" width="651" height="273" xlink:href="881A2CE8DECB11B7.jpg"  transform="matrix(0.24 0 0 0.24 52.4976 44.4548)">
						</image>
					</g>
				</mask>
				<g>
					<g>
						<g>
							<g>
								<path d="M204.027,95.409l-142.62,12.351c-1.608,0.14-3.025-1.052-3.165-2.66l-3.734-43.118
									c-0.139-1.609,1.052-3.025,2.66-3.165l142.62-12.351c1.609-0.139,3.025,1.052,3.165,2.66l3.734,43.118
									C206.826,93.852,205.635,95.269,204.027,95.409"/>
							</g>
						</g>
					</g>
				</g>
			</g>
		</g>
		<g>
			<g>
				<g>
					<linearGradient id="SVGID_2_" gradientUnits="userSpaceOnUse" x1="131.2316" y1="32.8194" x2="162.7316" y2="374.8194">
						<stop  offset="0" style="stop-color:#FFFFFF"/>
						<stop  offset="0.095" style="stop-color:#F0F0F0"/>
						<stop  offset="0.2788" style="stop-color:#C8C8C8"/>
						<stop  offset="0.5328" style="stop-color:#878787"/>
						<stop  offset="0.844" style="stop-color:#2F2F2F"/>
						<stop  offset="1" style="stop-color:#000000"/>
					</linearGradient>
					<path fill="url(#SVGID_2_)" d="M208.261,90.208l-142.62,12.351c-1.608,0.14-3.025-1.052-3.165-2.66l-3.734-43.118
						c-0.139-1.609,1.052-3.025,2.66-3.165l142.62-12.351c1.609-0.139,3.025,1.052,3.165,2.66l3.734,43.118
						C211.061,88.651,209.87,90.068,208.261,90.208"/>
				</g>
			</g>
		</g>
		<g>
			<path fill="#424243" d="M95.027,62.5c-1.907-1.401-3.812-1.843-6.173-1.843c-0.777,0-1.603,0.048-2.495,0.125l-9.321,0.807
				l2.775,32.045l6.246-0.541l-1.028-11.867l4.035-0.35c3.699-0.32,6.25-1.605,7.874-3.537c2.238-2.663,2.13-6.138,2.021-7.388
				C98.763,67.646,97.821,64.582,95.027,62.5z M91.108,74.263c-1.258,1.125-2.795,1.258-3.996,1.362l-2.546,0.22l-0.815-9.416
				l2.161-0.187c0.47-0.041,0.955-0.073,1.443-0.073c1.056,0,2.123,0.152,3.065,0.699c0.97,0.594,1.939,1.72,2.093,3.498
				C92.633,71.759,92.182,73.25,91.108,74.263z"/>
			<polygon fill="#424243" points="110.406,85.564 109.648,76.819 120.698,75.863 120.232,70.482 109.183,71.439 108.563,64.281 
				120.093,63.282 119.627,57.901 101.851,59.441 104.626,91.485 122.402,89.946 121.936,84.565 			"/>
			<path fill="#424243" d="M145.783,72.723c-0.884-0.697-2.211-1.502-4.354-1.656c0.822-0.556,3.415-2.473,3.057-6.606
				c-0.233-2.691-1.554-5.093-3.552-6.371c-1.84-1.192-3.986-1.46-5.74-1.46c-0.884,0-1.67,0.068-2.266,0.119l-7.926,0.687
				l2.775,32.045l10.762-0.932c2.787-0.242,5.676-0.975,7.894-3.298c2.04-2.161,2.34-4.849,2.178-6.722
				C148.464,76.847,147.863,74.382,145.783,72.723z M131.688,61.988l1.825-0.159c0.239-0.021,0.477-0.031,0.712-0.031
				c2.258,0,4.212,0.996,4.442,3.651c0.353,4.084-3.53,4.516-4.491,4.599l-1.777,0.154L131.688,61.988z M140.473,82.379
				c-1.324,0.938-3.048,1.136-4.201,1.236l-2.691,0.233l-0.765-8.84l2.306-0.199c0.606-0.053,1.261-0.109,1.926-0.109
				c0.81,0,1.636,0.084,2.404,0.363c2.096,0.738,2.583,2.438,2.67,3.447C142.229,79.758,141.931,81.332,140.473,82.379z"/>
			<path fill="#424243" d="M195.955,67.458c-0.791-9.132-7.29-15.411-16.26-15.411c-0.563,0-1.137,0.025-1.719,0.075
				c-5.333,0.462-9.219,2.54-11.875,5.966c-1.089,1.401-2.97,4.274-3.325,8.565l-4.419,0.382l-1.074-12.395l-6.246,0.541
				l2.775,32.045l6.246-0.541l-1.235-14.268l4.227-0.366c0.876,5.634,4.009,8.848,5.78,10.293c2.54,2.056,5.82,3.351,10.086,3.351
				c0.632,0,1.285-0.028,1.959-0.087C190.725,84.755,196.796,77.162,195.955,67.458z M180.385,79.939
				c-0.338,0.029-0.671,0.044-1,0.044c-5.498,0-9.512-4.054-10.046-10.22c-0.666-7.686,4.372-11.559,9.128-11.972
				c0.287-0.025,0.578-0.037,0.871-0.037c4.547,0,9.553,3.041,10.178,10.262C190.083,74.549,186.391,79.418,180.385,79.939z"/>
		</g>
	</g>
</g>
</svg>
