<?xml version="1.0" encoding="utf-8"?>
<!-- Generator: Adobe Illustrator 17.0.0, SVG Export Plug-In . SVG Version: 6.00 Build 0)  -->
<!DOCTYPE svg PUBLIC "-//W3C//DTD SVG 1.1//EN" "http://www.w3.org/Graphics/SVG/1.1/DTD/svg11.dtd">
<svg version="1.1" id="Слой_1" xmlns="http://www.w3.org/2000/svg" xmlns:xlink="http://www.w3.org/1999/xlink" x="0px" y="0px"
	 width="360px" height="142.896px" viewBox="72.34 130.888 360 142.896" enable-background="new 72.34 130.888 360 142.896"
	 xml:space="preserve">
<circle fill="none" cx="74.988" cy="254.236" r="1.348"/>
<circle fill="none" cx="74.988" cy="254.236" r="1.348"/>
<polygon fill="none" points="110.348,236.588 77.992,236.588 77.992,272.008 110.508,272.008 125.296,272.008 125.296,266.8 
	125.296,236.588 116.44,236.588 "/>
<circle fill="none" cx="140.48" cy="199.084" r="0.584"/>
<circle fill="none" cx="230.5" cy="233.808" r="3.132"/>
<polygon fill="none" points="281.048,202.124 281.048,220.556 281.048,241.596 281.048,261.724 391.408,261.724 391.408,202.124 
	311.104,202.124 304.308,202.124 "/>
<path fill="none" d="M279.056,196.7h25.252v-59.336H156.696v58.348h11.172c1.468,0,2.66,1.188,2.66,2.656v22.184h105.72v-21.04
	C276.248,197.96,277.504,196.7,279.056,196.7z"/>
<circle fill="none" cx="336.228" cy="199.396" r="1.108"/>
<path fill="none" d="M130.848,237.524V266.8h33.672v-25.208v-21.04v-17.88h-7.828h-6.8H116.44v32.012h11.572
	C129.58,234.688,130.848,235.956,130.848,237.524z"/>
<path fill="none" d="M140.436,268.62c-0.416,0-0.812,0.136-1.14,0.396c-0.8,0.632-0.94,1.796-0.312,2.596
	c0.352,0.444,0.884,0.704,1.452,0.704c0.42,0,0.816-0.132,1.144-0.396c0.804-0.628,0.94-1.796,0.308-2.592
	C141.536,268.88,141.004,268.62,140.436,268.62z"/>
<path fill="none" d="M422.196,239.856h2.524c0.168,0,0.304-0.136,0.304-0.304s-0.136-0.304-0.304-0.304h-2.524
	c-0.168,0-0.304,0.136-0.304,0.304S422.028,239.856,422.196,239.856z"/>
<path fill="none" d="M424.26,270.092c-0.212-0.14-0.46-0.216-0.712-0.216c-0.444,0-0.856,0.224-1.092,0.588
	c-0.192,0.292-0.252,0.64-0.188,0.98c0.072,0.344,0.268,0.636,0.564,0.824c0.216,0.14,0.456,0.216,0.716,0.216
	c0.44,0,0.848-0.22,1.088-0.584c0.192-0.292,0.256-0.64,0.188-0.984C424.752,270.58,424.556,270.284,424.26,270.092z"/>
<circle fill="none" cx="420.964" cy="239.528" r="0.272"/>
<rect x="415.932" y="241.512" fill="none" width="15.228" height="27.104"/>
<circle fill="none" cx="423.548" cy="238.032" r="0.344"/>
<path d="M396.212,265.116v-65.604c0-1.552-1.26-2.812-2.812-2.812h-82.296v5.42h80.3v59.6h-110.36v-20.124h-4.8v23.52
	c0,0.436,0.104,0.848,0.284,1.22h-13.64v4.536c0,1.556,1.256,2.812,2.812,2.812h141.048c1.556,0,2.812-1.256,2.812-2.812v-4.536
	h-13.64C396.1,265.964,396.212,265.556,396.212,265.116z M336.228,200.504c-0.612,0-1.108-0.496-1.108-1.108
	s0.496-1.108,1.108-1.108c0.608,0,1.108,0.496,1.108,1.108S336.836,200.504,336.228,200.504z M343.24,271.116h-14.028
	c-0.608,0-1.104-0.496-1.104-1.104c0-0.612,0.496-1.108,1.104-1.108h14.028c0.612,0,1.108,0.496,1.108,1.108
	C344.348,270.62,343.852,271.116,343.24,271.116z"/>
<path d="M429.8,236.292h-0.328c0-0.004,0.004-0.008,0.004-0.012v-0.076c0-0.048-0.044-0.084-0.088-0.084h-2.716
	c-0.052,0-0.088,0.04-0.088,0.084v0.076c0,0.004,0,0.008,0,0.012h-9.288c-1.404,0-2.544,1.136-2.544,2.544v2.496H414.6
	c-0.056,0-0.096,0.044-0.096,0.092v1.512c0,0.052,0.044,0.092,0.096,0.092h0.148v1.92c-0.008-0.004-0.012-0.004-0.024-0.004h-0.16
	c-0.036,0-0.064,0.028-0.064,0.064v1.08c0,0.036,0.028,0.064,0.064,0.064h0.16c0.012,0,0.016,0,0.024-0.004v1.908
	c-0.008-0.004-0.012-0.004-0.024-0.004h-0.16c-0.036,0-0.064,0.028-0.064,0.064v1.08c0,0.036,0.028,0.068,0.064,0.068h0.16
	c0.012,0,0.016-0.004,0.024-0.008v21.9c0,1.404,1.14,2.544,2.544,2.544H429.8c1.404,0,2.54-1.14,2.54-2.544v-32.312
	C432.34,237.428,431.204,236.292,429.8,236.292z M423.32,237.772c0.144-0.124,0.36-0.112,0.484,0.028
	c0.128,0.144,0.112,0.364-0.032,0.488c-0.14,0.124-0.36,0.112-0.484-0.032C423.164,238.116,423.176,237.9,423.32,237.772z
	 M422.196,239.248h2.524c0.168,0,0.304,0.136,0.304,0.304s-0.136,0.304-0.304,0.304h-2.524c-0.168,0-0.304-0.136-0.304-0.304
	S422.028,239.248,422.196,239.248z M420.964,239.256c0.148,0,0.272,0.12,0.272,0.268c0,0.152-0.124,0.272-0.272,0.272
	s-0.268-0.12-0.268-0.272C420.696,239.38,420.816,239.256,420.964,239.256z M424.636,271.904c-0.244,0.368-0.648,0.584-1.088,0.584
	c-0.256,0-0.5-0.076-0.716-0.216c-0.292-0.188-0.492-0.48-0.564-0.824c-0.068-0.34-0.004-0.688,0.188-0.98
	c0.24-0.368,0.648-0.588,1.092-0.588c0.252,0,0.5,0.076,0.712,0.216c0.292,0.192,0.492,0.484,0.564,0.824
	C424.896,271.26,424.828,271.608,424.636,271.904z M431.16,268.616h-15.228v-27.104h15.228V268.616z"/>
<path d="M304.308,202.124v-5.42h-25.252c-1.552,0-2.808,1.26-2.808,2.812v21.04h4.8v-18.432H304.308z"/>
<path d="M156.696,137.364h147.612V196.7v5.42h6.796v-5.42v-61.14c0-2.656-2.152-4.672-4.804-4.672h-74.468h-2.536h-74.464
	c-2.652,0-4.936,2.016-4.936,4.668v60.156h6.8V137.364z"/>
<path d="M281.048,220.556h-4.8h-105.72v21.04h43.948c-0.068,1.52-0.548,8.068-3.656,11.24c-2.452,2.5-5.86,4.844-4.532,6.048
	c0.324,0.74,1.852,1.168,5.332,1.168c7.668,0,15.976,0,19.02,0c0.768,0,1.196,0,1.196,0c3.04,0,11.352,0,19.02,0
	c3.96,0,5.344-0.648,5.356-1.616h-0.136v-0.32h-0.136c-0.18-1.304-2.82-3.24-4.82-5.272c-3.112-3.172-3.584-9.716-3.656-11.24
	h28.784h4.8L281.048,220.556L281.048,220.556z M230.5,236.94c-1.736,0-3.136-1.404-3.136-3.132s1.404-3.132,3.136-3.132
	s3.132,1.404,3.132,3.132C233.636,235.54,232.232,236.94,230.5,236.94z"/>
<path d="M170.524,198.368c0-1.468-1.192-2.656-2.66-2.656h-11.172h-6.8H113c-1.464,0-2.656,1.188-2.656,2.656v36.32h6.092v-32.012
	h33.456h6.8h7.828v17.88v21.04V266.8h-33.672v4.148c0,1.564-1.268,2.836-2.836,2.836h39.852c1.468,0,2.66-1.192,2.66-2.656v-29.536
	v-21.04L170.524,198.368L170.524,198.368z M140.956,199.424c-0.192,0.26-0.556,0.32-0.82,0.128c-0.26-0.188-0.32-0.556-0.128-0.816
	c0.188-0.26,0.552-0.32,0.816-0.128C141.084,198.8,141.144,199.168,140.956,199.424z M141.58,271.92
	c-0.328,0.26-0.724,0.396-1.144,0.396c-0.572,0-1.1-0.256-1.452-0.704c-0.628-0.8-0.492-1.964,0.312-2.596
	c0.328-0.256,0.724-0.396,1.14-0.396c0.572,0,1.1,0.256,1.452,0.708C142.52,270.124,142.384,271.292,141.58,271.92z"/>
<path d="M130.848,270.948V266.8v-29.276c0-1.568-1.268-2.836-2.836-2.836H116.44h-6.092H75.176c-1.568,0-2.836,1.268-2.836,2.836
	v33.424c0,1.564,1.272,2.836,2.836,2.836h37.828h15.008C129.58,273.784,130.848,272.512,130.848,270.948z M75.824,255.296
	c-0.584,0.46-1.432,0.36-1.896-0.228c-0.464-0.588-0.36-1.432,0.228-1.896c0.584-0.46,1.432-0.36,1.896,0.228
	C76.508,253.984,76.408,254.836,75.824,255.296z M125.296,266.8v5.208h-14.784h-32.52v-35.416h32.36h6.092h8.852V266.8z
	 M128.224,254.496c-0.12,0.164-0.356,0.204-0.524,0.084s-0.204-0.356-0.084-0.524c0.12-0.168,0.352-0.204,0.52-0.084
	C128.304,254.092,128.34,254.328,128.224,254.496z"/>
</svg>
