<?xml version="1.0" encoding="utf-8"?>
<!-- Generator: Adobe Illustrator 17.0.0, SVG Export Plug-In . SVG Version: 6.00 Build 0)  -->
<!DOCTYPE svg PUBLIC "-//W3C//DTD SVG 1.1//EN" "http://www.w3.org/Graphics/SVG/1.1/DTD/svg11.dtd">
<svg version="1.1" id="Слой_1" xmlns="http://www.w3.org/2000/svg" xmlns:xlink="http://www.w3.org/1999/xlink" x="0px" y="0px"
	 width="119.25px" height="77.278px" viewBox="0 0 119.25 77.278" enable-background="new 0 0 119.25 77.278" xml:space="preserve">
<g>
	<g>
		<g>
			<path fill="#0D0F0F" d="M7.857,38.25c-0.305,0-0.602-0.004-0.904-0.011c-0.626-0.008-1.251-0.063-1.869-0.163
				c-0.576-0.099-1.135-0.284-1.657-0.548c-0.517-0.262-0.989-0.605-1.397-1.017c-0.414-0.407-0.759-0.878-1.021-1.396
				c-0.265-0.521-0.448-1.08-0.543-1.657c-0.103-0.62-0.159-1.247-0.166-1.875c-0.006-0.211-0.015-0.913-0.015-0.913V7.569
				c0,0,0.009-0.691,0.015-0.895c0.008-0.627,0.063-1.253,0.166-1.872C0.56,4.224,0.744,3.664,1.009,3.141
				c0.261-0.518,0.604-0.99,1.015-1.398C2.435,1.331,2.908,0.986,3.426,0.72c0.521-0.263,1.078-0.446,1.653-0.544
				C5.7,0.075,6.326,0.02,6.955,0.012L7.857,0h102.769l0.913,0.013c0.623,0.007,1.244,0.062,1.858,0.163
				c0.581,0.099,1.144,0.283,1.671,0.548c1.038,0.535,1.882,1.381,2.415,2.42c0.261,0.52,0.441,1.075,0.535,1.649
				c0.104,0.624,0.162,1.255,0.174,1.887c0.003,0.283,0.003,0.587,0.003,0.89c0.008,0.375,0.008,0.732,0.008,1.092V29.59
				c0,0.363,0,0.718-0.008,1.075c0,0.325,0,0.623-0.004,0.93c-0.012,0.621-0.069,1.241-0.171,1.854
				c-0.093,0.581-0.275,1.144-0.54,1.67c-0.264,0.512-0.606,0.98-1.016,1.386c-0.409,0.414-0.881,0.759-1.399,1.022
				c-0.525,0.266-1.088,0.451-1.668,0.55c-0.618,0.101-1.243,0.155-1.869,0.163c-0.293,0.007-0.6,0.011-0.897,0.011l-1.084,0.002
				L7.857,38.25z"/>
		</g>
		<g id="_Group_">
			<g id="_Group_2">
				<g id="_Group_3">
					<path id="_Path_" fill="#FFFFFF" d="M24.181,19.426c0.022-1.696,0.911-3.263,2.357-4.152c-0.916-1.308-2.395-2.108-3.991-2.158
						c-1.679-0.176-3.307,1.005-4.163,1.005c-0.872,0-2.19-0.987-3.608-0.958c-1.867,0.06-3.565,1.096-4.473,2.728
						c-1.934,3.348-0.491,8.269,1.361,10.976c0.927,1.325,2.01,2.806,3.428,2.753c1.387-0.058,1.905-0.884,3.579-0.884
						c1.659,0,2.145,0.884,3.591,0.851c1.488-0.024,2.426-1.331,3.321-2.669c0.666-0.944,1.178-1.988,1.518-3.093
						C25.332,23.077,24.183,21.345,24.181,19.426z"/>
					<path id="_Path_2" fill="#FFFFFF" d="M21.449,11.336c0.812-0.974,1.211-2.226,1.115-3.491c-1.24,0.13-2.385,0.723-3.208,1.66
						c-0.812,0.924-1.224,2.134-1.144,3.361C19.469,12.879,20.662,12.315,21.449,11.336z"/>
				</g>
			</g>
			<g>
				<path fill="#FFFFFF" d="M41.714,26.265h-4.733l-1.137,3.356h-2.005l4.483-12.418h2.083l4.483,12.418H42.85L41.714,26.265z
					 M37.471,24.716h3.752l-1.85-5.447h-0.052L37.471,24.716z"/>
				<path fill="#FFFFFF" d="M54.572,25.095c0,2.813-1.506,4.621-3.778,4.621c-1.175,0.061-2.281-0.554-2.849-1.584h-0.043v4.484
					h-1.858V20.567h1.799v1.506h0.034c0.593-1.024,1.7-1.639,2.883-1.601C53.057,20.473,54.572,22.289,54.572,25.095z
					 M52.661,25.095c0-1.833-0.947-3.038-2.393-3.038c-1.42,0-2.375,1.23-2.375,3.038c0,1.824,0.955,3.046,2.375,3.046
					C51.714,28.141,52.661,26.944,52.661,25.095z"/>
				<path fill="#FFFFFF" d="M64.536,25.095c0,2.813-1.506,4.621-3.778,4.621c-1.175,0.061-2.281-0.554-2.849-1.584h-0.043v4.484
					h-1.858V20.567h1.799v1.506h0.034c0.593-1.024,1.7-1.639,2.883-1.601C63.022,20.473,64.536,22.289,64.536,25.095z
					 M62.626,25.095c0-1.833-0.947-3.038-2.393-3.038c-1.42,0-2.375,1.23-2.375,3.038c0,1.824,0.955,3.046,2.375,3.046
					C61.679,28.141,62.626,26.944,62.626,25.095L62.626,25.095z"/>
				<path fill="#FFFFFF" d="M71.122,26.161c0.138,1.231,1.334,2.04,2.969,2.04c1.566,0,2.693-0.809,2.693-1.919
					c0-0.964-0.68-1.541-2.289-1.937l-1.609-0.388c-2.28-0.551-3.339-1.617-3.339-3.348c0-2.143,1.867-3.614,4.519-3.614
					c2.624,0,4.423,1.472,4.483,3.614h-1.876c-0.112-1.239-1.137-1.987-2.634-1.987s-2.521,0.757-2.521,1.858
					c0,0.878,0.654,1.395,2.255,1.79l1.368,0.336c2.548,0.603,3.606,1.626,3.606,3.442c0,2.323-1.851,3.778-4.794,3.778
					c-2.754,0-4.613-1.421-4.733-3.667L71.122,26.161z"/>
				<path fill="#FFFFFF" d="M82.758,18.425v2.143h1.722v1.472h-1.722v4.991c0,0.775,0.345,1.137,1.102,1.137
					c0.204-0.004,0.408-0.018,0.611-0.043v1.463c-0.34,0.064-0.686,0.092-1.032,0.086c-1.833,0-2.548-0.688-2.548-2.444v-5.189
					h-1.316v-1.472h1.316v-2.143H82.758z"/>
				<path fill="#FFFFFF" d="M85.477,25.095c0-2.849,1.678-4.639,4.294-4.639c2.625,0,4.295,1.79,4.295,4.639
					c0,2.856-1.661,4.639-4.295,4.639C87.138,29.733,85.477,27.951,85.477,25.095z M92.172,25.095c0-1.954-0.896-3.107-2.401-3.107
					s-2.4,1.162-2.4,3.107c0,1.962,0.895,3.106,2.4,3.106S92.172,27.057,92.172,25.095L92.172,25.095z"/>
				<path fill="#FFFFFF" d="M95.598,20.567h1.772v1.541h0.043c0.247-0.992,1.156-1.675,2.178-1.636
					c0.214-0.001,0.428,0.023,0.637,0.069v1.738c-0.27-0.083-0.552-0.121-0.835-0.112c-1.033-0.042-1.905,0.762-1.947,1.795
					c-0.004,0.096,0,0.192,0.01,0.288v5.37h-1.858L95.598,20.567z"/>
				<path fill="#FFFFFF" d="M108.796,26.962c-0.25,1.644-1.851,2.771-3.898,2.771c-2.634,0-4.269-1.765-4.269-4.596
					c0-2.84,1.644-4.682,4.19-4.682c2.505,0,4.08,1.721,4.08,4.466v0.637h-6.395v0.112c-0.115,1.297,0.844,2.442,2.141,2.557
					c0.098,0.009,0.196,0.011,0.295,0.008c0.902,0.084,1.752-0.433,2.091-1.273L108.796,26.962z M102.514,24.26h4.526
					c0.067-1.201-0.852-2.228-2.053-2.295c-0.056-0.003-0.112-0.004-0.168-0.003c-1.266-0.008-2.298,1.012-2.306,2.278
					C102.514,24.247,102.514,24.253,102.514,24.26z"/>
			</g>
		</g>
	</g>
	<g id="_Group_4">
		<g>
			<path fill="#FFFFFF" d="M36.15,10.378h0.798c0.549,0.068,1.05-0.321,1.118-0.871c0.003-0.027,0.006-0.054,0.007-0.081
				c0-0.55-0.414-0.906-1.116-0.906c-0.582-0.081-1.119,0.324-1.201,0.906c-0.001,0.009-0.003,0.019-0.004,0.028h-0.876
				c0.061-1.031,0.946-1.818,1.977-1.757c0.044,0.003,0.088,0.007,0.131,0.012c1.175,0,2.002,0.658,2.002,1.604
				c0.006,0.654-0.446,1.222-1.084,1.365v0.07c0.764,0.034,1.357,0.679,1.327,1.443c-0.113,1.095-1.092,1.891-2.187,1.779
				c-0.014-0.001-0.028-0.003-0.042-0.005c-1.085,0.148-2.085-0.612-2.233-1.697c-0.003-0.023-0.006-0.046-0.008-0.068h0.89
				c0.054,0.571,0.578,0.939,1.352,0.939s1.278-0.414,1.278-0.997c0-0.591-0.476-0.956-1.307-0.956H36.15V10.378z"/>
			<path fill="#FFFFFF" d="M40.241,12.549c0-0.811,0.604-1.278,1.675-1.344l1.22-0.07v-0.389c0-0.476-0.313-0.744-0.922-0.744
				c-0.496,0-0.839,0.182-0.938,0.5h-0.86c0.091-0.773,0.819-1.27,1.841-1.27c1.129,0,1.766,0.562,1.766,1.513v3.077h-0.856V13.19
				h-0.07c-0.291,0.462-0.807,0.732-1.353,0.707c-0.747,0.078-1.416-0.465-1.494-1.212C40.244,12.64,40.241,12.595,40.241,12.549z
				 M43.135,12.165v-0.376l-1.1,0.07c-0.62,0.042-0.901,0.252-0.901,0.649c0,0.405,0.352,0.641,0.835,0.641
				c0.583,0.059,1.104-0.366,1.163-0.949C43.134,12.188,43.135,12.176,43.135,12.165z"/>
			<path fill="#FFFFFF" d="M46.38,10.068v3.755h-0.889V9.32h2.965v0.748L46.38,10.068z"/>
			<path fill="#FFFFFF" d="M53.842,11.569c0,1.431-0.724,2.328-1.86,2.328c-0.57,0.039-1.11-0.256-1.386-0.756h-0.07v2.179h-0.889
				v-6h0.855v0.744h0.066c0.28-0.517,0.826-0.833,1.414-0.819C53.118,9.245,53.842,10.138,53.842,11.569z M52.927,11.569
				c0-0.951-0.45-1.526-1.203-1.526c-0.748,0-1.216,0.587-1.216,1.53c0,0.938,0.468,1.526,1.212,1.526
				C52.477,13.099,52.927,12.524,52.927,11.569z"/>
			<path fill="#FFFFFF" d="M55.025,15.436V14.67c0.096,0.012,0.193,0.018,0.29,0.017c0.392,0.029,0.743-0.242,0.814-0.628
				l0.066-0.219l-1.63-4.52h0.968l1.129,3.577h0.07l1.125-3.577h0.942l-1.679,4.689c-0.385,1.096-0.811,1.447-1.729,1.447
				C55.319,15.456,55.108,15.448,55.025,15.436z"/>
			<path fill="#FFFFFF" d="M59.493,12.545h0.885c0.087,0.397,0.459,0.604,0.979,0.604c0.592,0,0.955-0.261,0.955-0.666
				c0-0.434-0.326-0.641-0.955-0.641h-0.674v-0.69h0.662c0.537,0,0.811-0.207,0.811-0.583c0-0.331-0.265-0.583-0.811-0.583
				c-0.497,0-0.86,0.211-0.918,0.566h-0.856c0.133-0.85,0.922-1.436,1.774-1.319c1.07,0,1.683,0.484,1.683,1.245
				c0.01,0.437-0.286,0.821-0.711,0.922v0.07c0.508,0.066,0.887,0.501,0.881,1.013c0,0.856-0.729,1.422-1.841,1.422
				C60.374,13.905,59.575,13.455,59.493,12.545z"/>
			<path fill="#FFFFFF" d="M64.478,13.823V9.32h0.881v3.097h0.07l2.075-3.097h0.881v4.503h-0.881v-3.114h-0.066l-2.079,3.114
				L64.478,13.823z"/>
			<path fill="#FFFFFF" d="M73.238,10.068H71.82v3.755h-0.89v-3.755h-1.418V9.32h3.726V10.068z"/>
			<path fill="#FFFFFF" d="M78.025,12.607c-0.25,0.849-1.072,1.398-1.952,1.303c-1.129,0.03-2.069-0.861-2.099-1.991
				c-0.003-0.112,0.003-0.223,0.018-0.334c-0.152-1.137,0.646-2.182,1.783-2.334c0.097-0.013,0.195-0.019,0.293-0.018
				c1.253,0,2.01,0.856,2.01,2.27v0.31h-3.18v0.05c-0.056,0.654,0.43,1.23,1.084,1.286c0.038,0.003,0.077,0.005,0.115,0.004
				c0.434,0.052,0.857-0.164,1.07-0.546L78.025,12.607z M74.899,11.156h2.273c0.044-0.598-0.404-1.119-1.003-1.164
				c-0.035-0.003-0.07-0.003-0.105-0.003c-0.635-0.009-1.157,0.499-1.166,1.135C74.899,11.135,74.899,11.145,74.899,11.156
				L74.899,11.156z"/>
			<path fill="#FFFFFF" d="M81.792,9.32h2.03c0.881,0,1.397,0.446,1.397,1.145c0.003,0.457-0.314,0.854-0.761,0.951v0.07
				c0.546,0.035,0.969,0.491,0.963,1.038c0,0.786-0.591,1.298-1.579,1.298h-2.051V9.32z M82.673,10.002v1.166h0.881
				c0.537,0,0.794-0.207,0.794-0.587c0-0.351-0.224-0.579-0.695-0.579L82.673,10.002z M82.673,11.821v1.319h1.054
				c0.525,0,0.807-0.232,0.807-0.658c0-0.451-0.318-0.662-0.918-0.662L82.673,11.821z"/>
		</g>
	</g>
</g>
<g>
	<g>
		<g>
			<path fill="#0D0F0F" d="M7.857,77.276c-0.305,0-0.602-0.004-0.904-0.011c-0.626-0.008-1.251-0.063-1.869-0.163
				c-0.576-0.099-1.135-0.284-1.657-0.548c-0.517-0.262-0.989-0.605-1.397-1.017c-0.414-0.407-0.759-0.878-1.021-1.396
				c-0.265-0.521-0.448-1.08-0.543-1.657c-0.103-0.62-0.159-1.247-0.166-1.875c-0.006-0.211-0.015-0.913-0.015-0.913V46.596
				c0,0,0.009-0.691,0.015-0.895c0.008-0.627,0.063-1.253,0.166-1.872c0.095-0.578,0.279-1.139,0.543-1.662
				c0.261-0.518,0.604-0.99,1.015-1.398c0.411-0.412,0.884-0.757,1.402-1.022c0.521-0.263,1.078-0.446,1.653-0.544
				c0.62-0.101,1.247-0.156,1.876-0.164l0.902-0.012h102.769l0.913,0.013c0.623,0.007,1.244,0.062,1.858,0.163
				c0.581,0.099,1.144,0.283,1.671,0.548c1.038,0.535,1.882,1.381,2.415,2.42c0.261,0.52,0.441,1.075,0.535,1.649
				c0.104,0.624,0.162,1.255,0.174,1.887c0.003,0.283,0.003,0.587,0.003,0.89c0.008,0.375,0.008,0.732,0.008,1.092v20.929
				c0,0.363,0,0.718-0.008,1.075c0,0.325,0,0.623-0.004,0.93c-0.012,0.621-0.069,1.241-0.171,1.854
				c-0.093,0.581-0.275,1.144-0.54,1.67c-0.264,0.512-0.606,0.98-1.016,1.386c-0.409,0.414-0.881,0.759-1.399,1.022
				c-0.525,0.266-1.088,0.451-1.668,0.55c-0.618,0.101-1.243,0.155-1.869,0.163c-0.293,0.007-0.6,0.011-0.897,0.011l-1.084,0.002
				L7.857,77.276z"/>
		</g>
		<g id="_Group__1_">
			<path fill="#FFFFFF" d="M57.801,60.331c-2.088,0-3.789,1.587-3.789,3.775c0,2.173,1.701,3.775,3.789,3.775
				c2.088,0,3.789-1.601,3.789-3.775C61.59,61.918,59.888,60.331,57.801,60.331z M57.801,66.393c-1.144,0-2.131-0.944-2.131-2.288
				c0-1.358,0.987-2.288,2.131-2.288c1.144,0,2.13,0.929,2.13,2.288C59.931,65.45,58.945,66.393,57.801,66.393z M49.535,60.331
				c-2.088,0-3.789,1.587-3.789,3.775c0,2.173,1.701,3.775,3.789,3.775c2.088,0,3.789-1.601,3.789-3.775
				C53.324,61.918,51.623,60.331,49.535,60.331z M49.535,66.393c-1.144,0-2.131-0.944-2.131-2.288c0-1.358,0.987-2.288,2.131-2.288
				c1.144,0,2.13,0.929,2.13,2.288C51.665,65.45,50.679,66.393,49.535,66.393z M39.702,61.489v1.601h3.832
				c-0.114,0.901-0.415,1.558-0.872,2.016c-0.558,0.558-1.43,1.172-2.96,1.172c-2.359,0-4.204-1.902-4.204-4.261
				s1.844-4.261,4.204-4.261c1.273,0,2.202,0.5,2.888,1.144l1.13-1.13c-0.958-0.915-2.231-1.616-4.018-1.616
				c-3.231,0-5.948,2.631-5.948,5.862c0,3.231,2.717,5.862,5.948,5.862c1.744,0,3.06-0.572,4.089-1.644
				c1.058-1.058,1.387-2.545,1.387-3.746c0-0.372-0.029-0.715-0.086-1.001H39.702z M79.915,62.733
				c-0.315-0.844-1.273-2.402-3.231-2.402c-1.945,0-3.56,1.53-3.56,3.775c0,2.116,1.601,3.775,3.746,3.775
				c1.73,0,2.731-1.058,3.146-1.673l-1.287-0.858c-0.429,0.629-1.015,1.044-1.859,1.044c-0.844,0-1.444-0.386-1.83-1.144
				l5.047-2.088L79.915,62.733z M74.767,63.991c-0.043-1.458,1.13-2.202,1.973-2.202c0.658,0,1.215,0.329,1.401,0.801L74.767,63.991
				z M70.663,67.652h1.659V56.556h-1.659V67.652z M67.947,61.174H67.89c-0.372-0.443-1.087-0.844-1.988-0.844
				c-1.887,0-3.617,1.659-3.617,3.789c0,2.116,1.73,3.761,3.617,3.761c0.901,0,1.616-0.4,1.988-0.858h0.057v0.543
				c0,1.444-0.772,2.216-2.016,2.216c-1.015,0-1.644-0.729-1.902-1.344l-1.444,0.601c0.415,1.001,1.516,2.231,3.346,2.231
				c1.945,0,3.589-1.144,3.589-3.932V60.56h-1.573V61.174z M66.045,66.393c-1.144,0-2.102-0.958-2.102-2.273
				c0-1.33,0.958-2.302,2.102-2.302c1.13,0,2.016,0.972,2.016,2.302C68.061,65.435,67.175,66.393,66.045,66.393z M87.684,56.556
				h-3.968v11.095h1.656v-4.204h2.312c1.836,0,3.64-1.329,3.64-3.446S89.52,56.556,87.684,56.556z M87.727,61.904h-2.355V58.1h2.355
				c1.238,0,1.941,1.025,1.941,1.902C89.668,60.862,88.965,61.904,87.727,61.904z M97.961,60.31c-1.199,0-2.441,0.528-2.955,1.699
				l1.47,0.614c0.314-0.614,0.899-0.814,1.513-0.814c0.856,0,1.727,0.514,1.742,1.427v0.114c-0.3-0.171-0.942-0.428-1.727-0.428
				c-1.584,0-3.197,0.871-3.197,2.498c0,1.484,1.299,2.441,2.755,2.441c1.113,0,1.727-0.5,2.113-1.085h0.057v0.856h1.599v-4.254
				C101.33,61.409,99.86,60.31,97.961,60.31z M97.761,66.391c-0.542,0-1.299-0.271-1.299-0.942c0-0.856,0.942-1.185,1.756-1.185
				c0.728,0,1.071,0.157,1.513,0.371C99.603,65.663,98.718,66.391,97.761,66.391z M107.154,60.553l-1.899,4.81h-0.057l-1.97-4.81
				h-1.784l2.955,6.723l-1.684,3.74h1.727l4.554-10.463H107.154z M92.237,67.652h1.656V56.556h-1.656V67.652z"/>
			<g>
				
					<linearGradient id="SVGID_1_" gradientUnits="userSpaceOnUse" x1="19.3131" y1="453.9376" x2="5.1664" y2="439.791" gradientTransform="matrix(1 0 0 -1 0 502)">
					<stop  offset="0" style="stop-color:#4696D5"/>
					<stop  offset="0.0066" style="stop-color:#4597D6"/>
					<stop  offset="0.2601" style="stop-color:#40B5EB"/>
					<stop  offset="0.5122" style="stop-color:#4CB5DC"/>
					<stop  offset="0.7604" style="stop-color:#51B6D7"/>
					<stop  offset="1" style="stop-color:#53B6D4"/>
				</linearGradient>
				<path fill="url(#SVGID_1_)" d="M9.738,47.074c-0.223,0.259-0.355,0.662-0.355,1.184v18.644c0,0.522,0.132,0.925,0.355,1.184
					l0.057,0.061l9.506-10.444V57.58v-0.123L9.795,47.013L9.738,47.074z"/>
				
					<linearGradient id="SVGID_2_" gradientUnits="userSpaceOnUse" x1="27.6918" y1="444.4192" x2="9.1263" y2="444.4192" gradientTransform="matrix(1 0 0 -1 0 502)">
					<stop  offset="0" style="stop-color:#F5DB46"/>
					<stop  offset="0.4087" style="stop-color:#EFBA44"/>
					<stop  offset="0.7754" style="stop-color:#E8A344"/>
					<stop  offset="1" style="stop-color:#E59B44"/>
				</linearGradient>
				<path fill="url(#SVGID_2_)" d="M22.469,61.186l-3.168-3.483V57.58v-0.123l3.169-3.482l0.071,0.045l3.754,2.344
					c1.072,0.669,1.072,1.765,0,2.434l-3.754,2.344L22.469,61.186z"/>
				
					<linearGradient id="SVGID_3_" gradientUnits="userSpaceOnUse" x1="20.8537" y1="442.5716" x2="2.5268" y2="424.2448" gradientTransform="matrix(1 0 0 -1 0 502)">
					<stop  offset="0" style="stop-color:#D5555A"/>
					<stop  offset="1" style="stop-color:#BA546D"/>
				</linearGradient>
				<path fill="url(#SVGID_3_)" d="M22.542,61.141l-3.241-3.561L9.738,68.087c0.354,0.411,0.937,0.462,1.594,0.052L22.542,61.141"/>
				
					<linearGradient id="SVGID_4_" gradientUnits="userSpaceOnUse" x1="6.7374" y1="460.3839" x2="14.9211" y2="452.2001" gradientTransform="matrix(1 0 0 -1 0 502)">
					<stop  offset="0" style="stop-color:#519C6F"/>
					<stop  offset="0.0685" style="stop-color:#52A270"/>
					<stop  offset="0.4762" style="stop-color:#53AD70"/>
					<stop  offset="0.8009" style="stop-color:#53AD6D"/>
					<stop  offset="1" style="stop-color:#53AC6C"/>
				</linearGradient>
				<path fill="url(#SVGID_4_)" d="M22.542,54.02l-11.209-6.997c-0.657-0.41-1.241-0.359-1.594,0.052l9.562,10.506L22.542,54.02z"/>
				<g>
					<path opacity="0.2" fill="#0D0F0F" enable-background="new    " d="M22.47,61.063l-11.137,6.953
						c-0.623,0.389-1.18,0.363-1.537,0.009l0,0l-0.057,0.063l0,0l0.057,0.061l0,0c0.357,0.354,0.914,0.38,1.537-0.009l11.209-6.997
						L22.47,61.063z"/>
					<path opacity="0.12" fill="#0D0F0F" enable-background="new    " d="M9.738,67.964c-0.223-0.26-0.355-0.662-0.355-1.184v0.123
						c0,0.522,0.132,0.925,0.355,1.184l0.057-0.063L9.738,67.964z"/>
				</g>
				<path opacity="0.12" fill="#0D0F0F" enable-background="new    " d="M26.296,58.674l-3.826,2.388l0.071,0.078l3.754-2.344
					c0.536-0.335,0.804-0.776,0.804-1.217l0,0C27.055,57.98,26.782,58.371,26.296,58.674z"/>
				<path opacity="0.25" fill="#FFFFFF" enable-background="new    " d="M11.333,47.146l14.963,9.341
					c0.486,0.303,0.759,0.694,0.804,1.094l0,0c0-0.441-0.268-0.883-0.804-1.217l-14.963-9.341c-1.072-0.669-1.95-0.113-1.95,1.236
					v0.123C9.383,47.033,10.261,46.477,11.333,47.146z"/>
			</g>
		</g>
	</g>
	<g id="_Group_4_1_">
		<g>
			<path fill="#FFFFFF" d="M36.15,49.405h0.798c0.549,0.068,1.05-0.321,1.118-0.871c0.003-0.027,0.006-0.054,0.007-0.081
				c0-0.55-0.414-0.906-1.116-0.906c-0.582-0.081-1.119,0.324-1.201,0.906c-0.001,0.009-0.003,0.019-0.004,0.028h-0.876
				c0.061-1.031,0.946-1.818,1.977-1.757c0.044,0.003,0.088,0.007,0.131,0.012c1.175,0,2.002,0.658,2.002,1.604
				c0.006,0.654-0.446,1.222-1.084,1.365v0.07c0.764,0.034,1.357,0.679,1.327,1.443c-0.113,1.095-1.092,1.891-2.187,1.779
				c-0.014-0.001-0.028-0.003-0.042-0.005c-1.085,0.148-2.085-0.612-2.233-1.697c-0.003-0.023-0.006-0.046-0.008-0.068h0.89
				c0.054,0.571,0.578,0.939,1.352,0.939s1.278-0.414,1.278-0.997c0-0.591-0.476-0.956-1.307-0.956H36.15V49.405z"/>
			<path fill="#FFFFFF" d="M40.241,51.576c0-0.811,0.604-1.278,1.675-1.344l1.22-0.07v-0.389c0-0.476-0.313-0.744-0.922-0.744
				c-0.496,0-0.839,0.182-0.938,0.5h-0.86c0.091-0.773,0.819-1.27,1.841-1.27c1.129,0,1.766,0.562,1.766,1.513v3.077h-0.856v-0.633
				h-0.07c-0.291,0.462-0.807,0.732-1.353,0.707c-0.747,0.078-1.416-0.465-1.494-1.212C40.244,51.666,40.241,51.621,40.241,51.576z
				 M43.135,51.191v-0.376l-1.1,0.07c-0.62,0.042-0.901,0.252-0.901,0.649c0,0.405,0.352,0.641,0.835,0.641
				c0.583,0.059,1.104-0.366,1.163-0.949C43.134,51.215,43.135,51.203,43.135,51.191z"/>
			<path fill="#FFFFFF" d="M46.38,49.094v3.755h-0.889v-4.503h2.965v0.748L46.38,49.094z"/>
			<path fill="#FFFFFF" d="M53.842,50.596c0,1.431-0.724,2.328-1.86,2.328c-0.57,0.039-1.11-0.256-1.386-0.756h-0.07v2.179h-0.889
				v-6h0.855v0.744h0.066c0.28-0.517,0.826-0.833,1.414-0.819C53.118,48.272,53.842,49.165,53.842,50.596z M52.927,50.596
				c0-0.951-0.45-1.526-1.203-1.526c-0.748,0-1.216,0.587-1.216,1.53c0,0.938,0.468,1.526,1.212,1.526
				C52.477,52.126,52.927,51.551,52.927,50.596z"/>
			<path fill="#FFFFFF" d="M55.025,54.462v-0.765c0.096,0.012,0.193,0.018,0.29,0.017c0.392,0.029,0.743-0.242,0.814-0.628
				l0.066-0.219l-1.63-4.52h0.968l1.129,3.577h0.07l1.125-3.577h0.942l-1.679,4.689c-0.385,1.096-0.811,1.447-1.729,1.447
				C55.319,54.483,55.108,54.474,55.025,54.462z"/>
			<path fill="#FFFFFF" d="M59.493,51.571h0.885c0.087,0.397,0.459,0.604,0.979,0.604c0.592,0,0.955-0.261,0.955-0.666
				c0-0.434-0.326-0.641-0.955-0.641h-0.674v-0.69h0.662c0.537,0,0.811-0.207,0.811-0.583c0-0.331-0.265-0.583-0.811-0.583
				c-0.497,0-0.86,0.211-0.918,0.566h-0.856c0.133-0.85,0.922-1.436,1.774-1.319c1.07,0,1.683,0.484,1.683,1.245
				c0.01,0.437-0.286,0.821-0.711,0.922v0.07c0.508,0.066,0.887,0.501,0.881,1.013c0,0.856-0.729,1.422-1.841,1.422
				C60.374,52.932,59.575,52.481,59.493,51.571z"/>
			<path fill="#FFFFFF" d="M64.478,52.849v-4.503h0.881v3.097h0.07l2.075-3.097h0.881v4.503h-0.881v-3.114h-0.066l-2.079,3.114
				L64.478,52.849z"/>
			<path fill="#FFFFFF" d="M73.238,49.094H71.82v3.755h-0.89v-3.755h-1.418v-0.748h3.726V49.094z"/>
			<path fill="#FFFFFF" d="M78.025,51.633c-0.25,0.849-1.072,1.398-1.952,1.303c-1.129,0.03-2.069-0.861-2.099-1.991
				c-0.003-0.112,0.003-0.223,0.018-0.334c-0.152-1.137,0.646-2.182,1.783-2.334c0.097-0.013,0.195-0.019,0.293-0.018
				c1.253,0,2.01,0.856,2.01,2.27v0.31h-3.18v0.05c-0.056,0.654,0.43,1.23,1.084,1.286c0.038,0.003,0.077,0.005,0.115,0.004
				c0.434,0.052,0.857-0.164,1.07-0.546L78.025,51.633z M74.899,50.182h2.273c0.044-0.598-0.404-1.119-1.003-1.164
				c-0.035-0.003-0.07-0.003-0.105-0.003c-0.635-0.009-1.157,0.499-1.166,1.135C74.899,50.161,74.899,50.172,74.899,50.182
				L74.899,50.182z"/>
			<path fill="#FFFFFF" d="M81.792,48.346h2.03c0.881,0,1.397,0.446,1.397,1.145c0.003,0.457-0.314,0.854-0.761,0.951v0.07
				c0.546,0.035,0.969,0.491,0.963,1.038c0,0.786-0.591,1.298-1.579,1.298h-2.051V48.346z M82.673,49.028v1.166h0.881
				c0.537,0,0.794-0.207,0.794-0.587c0-0.351-0.224-0.579-0.695-0.579L82.673,49.028z M82.673,50.848v1.319h1.054
				c0.525,0,0.807-0.232,0.807-0.658c0-0.451-0.318-0.662-0.918-0.662L82.673,50.848z"/>
		</g>
	</g>
</g>
</svg>
